<mxfile host="app.diagrams.net" modified="2024-04-01T23:01:33.586Z" agent="Mozilla/5.0 (Windows NT 10.0; Win64; x64; rv:109.0) Gecko/20100101 Firefox/115.0" etag="SOP0UqD7pQOAZ3-BF2zp" version="24.2.0" type="github">
  <diagram name="Page-1" id="qmBhagxwy8o-sB2pswnc">
    <mxGraphModel dx="760" dy="440" grid="1" gridSize="10" guides="1" tooltips="1" connect="1" arrows="1" fold="1" page="1" pageScale="1" pageWidth="850" pageHeight="1100" math="0" shadow="0">
      <root>
        <mxCell id="0" />
        <mxCell id="1" parent="0" />
        <mxCell id="mYcPW0X5ZhqT0lR6azvl-80" style="rounded=0;orthogonalLoop=1;jettySize=auto;html=1;edgeStyle=orthogonalEdgeStyle;endArrow=classic;endFill=1;" parent="1" source="mYcPW0X5ZhqT0lR6azvl-52" edge="1">
          <mxGeometry relative="1" as="geometry">
            <mxPoint x="280" y="120" as="targetPoint" />
          </mxGeometry>
        </mxCell>
        <mxCell id="mYcPW0X5ZhqT0lR6azvl-52" value="Player" style="swimlane;whiteSpace=wrap;html=1;" parent="1" vertex="1">
          <mxGeometry x="70" y="70" width="120" height="100" as="geometry">
            <mxRectangle x="70" y="70" width="70" height="30" as="alternateBounds" />
          </mxGeometry>
        </mxCell>
        <mxCell id="mYcPW0X5ZhqT0lR6azvl-53" value="- Weapon" style="text;html=1;align=center;verticalAlign=middle;resizable=0;points=[];autosize=1;strokeColor=none;fillColor=none;" parent="mYcPW0X5ZhqT0lR6azvl-52" vertex="1">
          <mxGeometry x="-5" y="24" width="80" height="30" as="geometry" />
        </mxCell>
        <mxCell id="mYcPW0X5ZhqT0lR6azvl-55" value="+ use()" style="text;html=1;align=center;verticalAlign=middle;resizable=0;points=[];autosize=1;strokeColor=none;fillColor=none;" parent="mYcPW0X5ZhqT0lR6azvl-52" vertex="1">
          <mxGeometry x="-2" y="60" width="60" height="30" as="geometry" />
        </mxCell>
        <mxCell id="mYcPW0X5ZhqT0lR6azvl-54" value="" style="endArrow=none;html=1;rounded=0;" parent="1" edge="1">
          <mxGeometry width="50" height="50" relative="1" as="geometry">
            <mxPoint x="70" y="130" as="sourcePoint" />
            <mxPoint x="190" y="130" as="targetPoint" />
          </mxGeometry>
        </mxCell>
        <mxCell id="mYcPW0X5ZhqT0lR6azvl-56" value="&lt;div&gt;&amp;lt;interface&amp;gt;&lt;/div&gt;&lt;div&gt;Weapon&lt;br&gt;&lt;/div&gt;" style="swimlane;whiteSpace=wrap;html=1;startSize=40;" parent="1" vertex="1">
          <mxGeometry x="281" y="80" width="120" height="80" as="geometry" />
        </mxCell>
        <mxCell id="mYcPW0X5ZhqT0lR6azvl-57" value="+ use()" style="text;html=1;align=center;verticalAlign=middle;resizable=0;points=[];autosize=1;strokeColor=none;fillColor=none;" parent="mYcPW0X5ZhqT0lR6azvl-56" vertex="1">
          <mxGeometry y="40" width="60" height="30" as="geometry" />
        </mxCell>
        <mxCell id="mYcPW0X5ZhqT0lR6azvl-76" style="edgeStyle=orthogonalEdgeStyle;rounded=0;orthogonalLoop=1;jettySize=auto;html=1;exitX=0.5;exitY=0;exitDx=0;exitDy=0;entryX=0.5;entryY=1;entryDx=0;entryDy=0;dashed=1;dashPattern=8 8;" parent="1" source="mYcPW0X5ZhqT0lR6azvl-63" target="mYcPW0X5ZhqT0lR6azvl-56" edge="1">
          <mxGeometry relative="1" as="geometry" />
        </mxCell>
        <mxCell id="mYcPW0X5ZhqT0lR6azvl-63" value="Bow" style="swimlane;whiteSpace=wrap;html=1;" parent="1" vertex="1">
          <mxGeometry x="121" y="280" width="119" height="109" as="geometry" />
        </mxCell>
        <mxCell id="mYcPW0X5ZhqT0lR6azvl-64" value="&lt;div align=&quot;left&quot;&gt;- name&lt;/div&gt;&lt;div align=&quot;left&quot;&gt;- damage&lt;/div&gt;&lt;div align=&quot;left&quot;&gt;- ammo&lt;br&gt;&lt;/div&gt;" style="text;html=1;align=left;verticalAlign=middle;resizable=0;points=[];autosize=1;strokeColor=none;fillColor=none;" parent="mYcPW0X5ZhqT0lR6azvl-63" vertex="1">
          <mxGeometry x="5" y="22" width="70" height="60" as="geometry" />
        </mxCell>
        <mxCell id="mYcPW0X5ZhqT0lR6azvl-65" value="+ use()" style="text;html=1;align=center;verticalAlign=middle;resizable=0;points=[];autosize=1;strokeColor=none;fillColor=none;" parent="mYcPW0X5ZhqT0lR6azvl-63" vertex="1">
          <mxGeometry y="80" width="60" height="30" as="geometry" />
        </mxCell>
        <mxCell id="mYcPW0X5ZhqT0lR6azvl-66" value="" style="endArrow=none;html=1;rounded=0;" parent="1" edge="1">
          <mxGeometry width="50" height="50" relative="1" as="geometry">
            <mxPoint x="121" y="359" as="sourcePoint" />
            <mxPoint x="241" y="359" as="targetPoint" />
          </mxGeometry>
        </mxCell>
        <mxCell id="mYcPW0X5ZhqT0lR6azvl-77" style="edgeStyle=orthogonalEdgeStyle;rounded=0;orthogonalLoop=1;jettySize=auto;html=1;exitX=0.5;exitY=0;exitDx=0;exitDy=0;entryX=0.5;entryY=1;entryDx=0;entryDy=0;dashed=1;dashPattern=8 8;" parent="1" source="mYcPW0X5ZhqT0lR6azvl-67" target="mYcPW0X5ZhqT0lR6azvl-56" edge="1">
          <mxGeometry relative="1" as="geometry" />
        </mxCell>
        <mxCell id="mYcPW0X5ZhqT0lR6azvl-67" value="Sword" style="swimlane;whiteSpace=wrap;html=1;" parent="1" vertex="1">
          <mxGeometry x="281" y="280" width="120" height="109" as="geometry" />
        </mxCell>
        <mxCell id="mYcPW0X5ZhqT0lR6azvl-68" value="&lt;div align=&quot;left&quot;&gt;- name&lt;/div&gt;&lt;div align=&quot;left&quot;&gt;- damage&lt;/div&gt;" style="text;html=1;align=left;verticalAlign=middle;resizable=0;points=[];autosize=1;strokeColor=none;fillColor=none;" parent="mYcPW0X5ZhqT0lR6azvl-67" vertex="1">
          <mxGeometry x="5" y="32" width="70" height="40" as="geometry" />
        </mxCell>
        <mxCell id="mYcPW0X5ZhqT0lR6azvl-69" value="+ use()" style="text;html=1;align=center;verticalAlign=middle;resizable=0;points=[];autosize=1;strokeColor=none;fillColor=none;" parent="mYcPW0X5ZhqT0lR6azvl-67" vertex="1">
          <mxGeometry y="80" width="60" height="30" as="geometry" />
        </mxCell>
        <mxCell id="mYcPW0X5ZhqT0lR6azvl-70" value="" style="endArrow=none;html=1;rounded=0;" parent="1" edge="1">
          <mxGeometry width="50" height="50" relative="1" as="geometry">
            <mxPoint x="281" y="359" as="sourcePoint" />
            <mxPoint x="401" y="359" as="targetPoint" />
          </mxGeometry>
        </mxCell>
        <mxCell id="mYcPW0X5ZhqT0lR6azvl-79" style="edgeStyle=orthogonalEdgeStyle;rounded=0;orthogonalLoop=1;jettySize=auto;html=1;exitX=0.5;exitY=0;exitDx=0;exitDy=0;dashed=1;dashPattern=8 8;" parent="1" source="mYcPW0X5ZhqT0lR6azvl-71" edge="1">
          <mxGeometry relative="1" as="geometry">
            <mxPoint x="340" y="160" as="targetPoint" />
          </mxGeometry>
        </mxCell>
        <mxCell id="mYcPW0X5ZhqT0lR6azvl-71" value="Shield" style="swimlane;whiteSpace=wrap;html=1;" parent="1" vertex="1">
          <mxGeometry x="440" y="280" width="120" height="109" as="geometry" />
        </mxCell>
        <mxCell id="mYcPW0X5ZhqT0lR6azvl-72" value="&lt;div align=&quot;left&quot;&gt;- name&lt;/div&gt;&lt;div align=&quot;left&quot;&gt;- damage&lt;/div&gt;&lt;div&gt;- defeat&lt;br&gt;&lt;/div&gt;" style="text;html=1;align=left;verticalAlign=middle;resizable=0;points=[];autosize=1;strokeColor=none;fillColor=none;" parent="mYcPW0X5ZhqT0lR6azvl-71" vertex="1">
          <mxGeometry x="5" y="22" width="70" height="60" as="geometry" />
        </mxCell>
        <mxCell id="mYcPW0X5ZhqT0lR6azvl-73" value="+ use()" style="text;html=1;align=center;verticalAlign=middle;resizable=0;points=[];autosize=1;strokeColor=none;fillColor=none;" parent="mYcPW0X5ZhqT0lR6azvl-71" vertex="1">
          <mxGeometry y="80" width="60" height="30" as="geometry" />
        </mxCell>
        <mxCell id="mYcPW0X5ZhqT0lR6azvl-74" value="" style="endArrow=none;html=1;rounded=0;" parent="1" edge="1">
          <mxGeometry width="50" height="50" relative="1" as="geometry">
            <mxPoint x="440" y="359" as="sourcePoint" />
            <mxPoint x="560" y="359" as="targetPoint" />
          </mxGeometry>
        </mxCell>
        <mxCell id="mYcPW0X5ZhqT0lR6azvl-82" value="Strategy" style="text;html=1;align=center;verticalAlign=middle;resizable=0;points=[];autosize=1;strokeColor=none;fillColor=none;" parent="1" vertex="1">
          <mxGeometry x="105" y="8" width="70" height="30" as="geometry" />
        </mxCell>
        <mxCell id="mYcPW0X5ZhqT0lR6azvl-83" value="&lt;div&gt;&amp;lt;interface&amp;gt;&lt;/div&gt;&lt;div&gt;Weapon&lt;br&gt;&lt;/div&gt;" style="swimlane;whiteSpace=wrap;html=1;startSize=40;" parent="1" vertex="1">
          <mxGeometry x="760" y="80" width="120" height="80" as="geometry" />
        </mxCell>
        <mxCell id="mYcPW0X5ZhqT0lR6azvl-84" value="+ use()" style="text;html=1;align=center;verticalAlign=middle;resizable=0;points=[];autosize=1;strokeColor=none;fillColor=none;" parent="mYcPW0X5ZhqT0lR6azvl-83" vertex="1">
          <mxGeometry y="40" width="60" height="30" as="geometry" />
        </mxCell>
        <mxCell id="mYcPW0X5ZhqT0lR6azvl-85" value="Compose" style="text;html=1;align=center;verticalAlign=middle;resizable=0;points=[];autosize=1;strokeColor=none;fillColor=none;" parent="1" vertex="1">
          <mxGeometry x="760" y="8" width="70" height="30" as="geometry" />
        </mxCell>
        <mxCell id="mkSkwuGq9V4HWhdQSe2g-2" value="" style="shape=mxgraph.arrows2.wedgeArrow;html=1;bendable=0;startWidth=16;fillColor=strokeColor;defaultFillColor=invert;defaultGradientColor=invert;rounded=0;entryX=0.5;entryY=1;entryDx=0;entryDy=0;" edge="1" parent="1" target="mYcPW0X5ZhqT0lR6azvl-56">
          <mxGeometry width="100" height="100" relative="1" as="geometry">
            <mxPoint x="341" y="190" as="sourcePoint" />
            <mxPoint x="460" y="160" as="targetPoint" />
          </mxGeometry>
        </mxCell>
        <mxCell id="mkSkwuGq9V4HWhdQSe2g-4" value="" style="html=1;whiteSpace=wrap;aspect=fixed;shape=isoRectangle;fillColor=#000000;strokeColor=#23445d;" vertex="1" parent="1">
          <mxGeometry x="190" y="107.5" width="41.67" height="25" as="geometry" />
        </mxCell>
      </root>
    </mxGraphModel>
  </diagram>
</mxfile>
